<svg width="120" height="120" viewBox="0 0 120 120" fill="none" xmlns="http://www.w3.org/2000/svg">
<path d="M60 21.0938C38.6951 21.0938 21.0938 38.4607 21.0938 59.7656C21.0938 81.0701 38.6951 98.4375 60 98.4375C81.3049 98.4375 98.6719 81.0701 98.6719 59.7656C98.6719 38.4607 81.3049 21.0938 60 21.0938Z" fill="#202095"/>
<path d="M98.6719 59.7656C98.6719 81.0701 81.3049 98.4375 60 98.4375V21.0938C81.3049 21.0938 98.6719 38.4607 98.6719 59.7656Z" fill="#202095"/>
<path d="M70.5469 45.7031C66.3284 45.7031 62.6016 47.6013 60 50.5547C57.3984 47.6013 53.6716 45.7031 49.4531 45.7031C41.719 45.7031 35.1562 52.031 35.1562 59.7656C35.1562 67.4998 41.719 73.8281 49.4531 73.8281C53.6716 73.8281 57.3984 71.9295 60 68.9766C62.6016 71.9295 66.3284 73.8281 70.5469 73.8281C78.281 73.8281 84.6094 67.4998 84.6094 59.7656C84.6094 52.031 78.281 45.7031 70.5469 45.7031ZM49.4531 66.7969C45.5859 66.7969 42.1875 63.6328 42.1875 59.7656C42.1875 55.8984 45.5859 52.7344 49.4531 52.7344C53.3203 52.7344 56.4844 55.8984 56.4844 59.7656C56.4844 63.6328 53.3203 66.7969 49.4531 66.7969ZM70.5469 66.7969C66.6797 66.7969 63.5156 63.6328 63.5156 59.7656C63.5156 55.8984 66.6797 52.7344 70.5469 52.7344C74.4141 52.7344 77.5781 55.8984 77.5781 59.7656C77.5781 63.6328 74.4141 66.7969 70.5469 66.7969Z" fill="#8857F9"/>
<path d="M120 59.7656C120 92.7422 92.9766 120 60 120C27.0234 120 0 92.7422 0 59.7656C0 43.875 6.46852 28.6873 17.5781 17.5781H12.3047C10.3357 17.5781 8.78906 16.031 8.78906 14.0625C8.78906 12.0935 10.3357 10.5469 12.3047 10.5469H26.3672C28.3362 10.5469 29.8828 12.0935 29.8828 14.0625V28.125C29.8828 30.0935 28.3362 31.6406 26.3672 31.6406C24.3982 31.6406 22.8516 30.0935 22.8516 28.125V22.2185C12.8674 32.0625 7.03125 45.6328 7.03125 59.7656C7.03125 88.875 30.8906 112.969 60 112.969C89.1094 112.969 112.969 88.875 112.969 59.7656C112.969 30.6563 89.1094 7.03125 60 7.03125C58.031 7.03125 56.4844 5.48414 56.4844 3.51562C56.4844 1.54664 58.031 0 60 0C92.9766 0 120 26.7891 120 59.7656Z" fill="white"/>
<path d="M70.5469 45.7031C66.3284 45.7031 62.6016 47.6013 60 50.5547V68.9766C62.6016 71.9295 66.3284 73.8281 70.5469 73.8281C78.281 73.8281 84.6094 67.4998 84.6094 59.7656C84.6094 52.031 78.281 45.7031 70.5469 45.7031ZM70.5469 66.7969C66.6797 66.7969 63.5156 63.6328 63.5156 59.7656C63.5156 55.8984 66.6797 52.7344 70.5469 52.7344C74.4141 52.7344 77.5781 55.8984 77.5781 59.7656C77.5781 63.6328 74.4141 66.7969 70.5469 66.7969Z" fill="#8857F9"/>
<path d="M120 59.7656C120 92.7422 92.9766 120 60 120V112.969C89.1094 112.969 112.969 88.875 112.969 59.7656C112.969 30.6563 89.1094 7.03125 60 7.03125V0C92.9766 0 120 26.7891 120 59.7656Z" fill="white"/>
</svg>
