<svg width="353" height="550" viewBox="0 0 353 550" fill="none" xmlns="http://www.w3.org/2000/svg">
<mask id="mask0" mask-type="alpha" maskUnits="userSpaceOnUse" x="0" y="0" width="353" height="550">
<rect width="353" height="550" fill="white"/>
</mask>
<g mask="url(#mask0)">
<path fill-rule="evenodd" clip-rule="evenodd" d="M27.3296 -121.329L38.338 -86.9229C48.9952 -52.6377 71.012 16.1737 119.796 27.8197C168.581 39.4656 244.834 -5.81278 291.533 10.2212C338.231 26.2553 356.076 103.843 364.647 142.516L373.569 181.31L473.699 -29.3176L450.175 -37.3948C427.001 -45.3516 379.952 -61.5062 333.253 -77.5402C286.555 -93.5742 239.506 -109.729 192.808 -125.763C146.11 -141.797 99.0603 -157.951 75.8867 -165.908L52.3621 -173.985L27.3296 -121.329Z" fill="#AA5FFF"/>
<path fill-rule="evenodd" clip-rule="evenodd" d="M-192.528 308.608L-157.266 317.822C-122.003 327.036 -51.1699 345.098 -47.1463 323.223C-42.8153 300.982 -105.294 238.804 -91.4624 222.321C-77.9385 206.203 11.895 235.78 30.169 222.542C48.443 209.303 -4.22767 152.516 4.54609 133.52C13.6272 114.158 84.1527 132.586 121.735 130.496C159.009 128.773 163.34 106.532 167.364 84.6567C171.387 62.7819 175.718 40.5407 193.992 27.3021C212.574 13.6973 245.098 9.09507 244.679 -16.0249C243.953 -40.7785 210.282 -86.0499 193.294 -108.502L176.305 -130.955L119.303 -165.5L112.541 -157.442C105.779 -149.383 91.9482 -132.899 78.4243 -116.782C64.5931 -100.298 51.0692 -84.1812 37.2379 -67.6975C23.714 -51.5802 9.88278 -35.0966 -3.64111 -18.9793C-17.165 -2.86194 -30.9962 13.6217 -44.5201 29.739C-58.3514 46.2226 -71.8753 62.34 -85.7065 78.8236C-99.2304 94.9409 -113.062 111.425 -126.586 127.542C-140.109 143.659 -153.941 160.143 -167.465 176.26C-181.296 192.744 -194.82 208.861 -208.651 225.345C-222.175 241.462 -236.006 257.946 -242.768 266.004L-249.53 274.063L-192.528 308.608Z" fill="#AA5FFF"/>
<path fill-rule="evenodd" clip-rule="evenodd" d="M676.248 -8.71947L650.73 2.87982C625.755 13.8642 575.262 36.4478 558.998 80.8493C542.19 125.866 560.154 192.085 509.661 214.669C459.168 237.252 340.219 216.2 304.395 248.134C268.572 280.069 315.331 365.604 299.066 410.005C282.802 454.407 202.971 458.289 152.478 480.873C101.985 503.457 80.8306 544.741 78.6924 599.108C77.097 652.86 95.0605 719.079 104.314 751.881L113.024 785.298L142.362 803.999L158.101 786.166C173.296 768.948 204.23 733.897 235.164 698.847C266.641 663.181 297.574 628.13 328.508 593.079C359.442 558.028 390.376 522.977 421.31 487.926C452.244 452.875 483.72 417.209 514.654 382.158C545.588 347.107 576.522 312.056 607.456 277.005C638.39 241.954 669.323 206.903 700.8 171.237C731.734 136.186 762.668 101.135 777.863 83.9173L793.602 66.0844L676.248 -8.71947Z" fill="#AA5FFF"/>
</g>
</svg>
